{"glyphs":{"\u0000":{"ha":347,"x_min":0,"x_max":0,"o":""},"\r":{"ha":347,"x_min":0,"x_max":0,"o":""}," ":{"ha":347,"x_min":0,"x_max":0,"o":""},"!":{"ha":301,"x_min":75,"x_max":229,"o":"m 75 231 q 88 260 75 246 q 118 274 101 274 q 142 263 132 274 q 153 233 153 251 q 142 201 153 215 q 114 188 131 188 q 88 202 101 188 q 75 231 75 217 m 169 936 q 197 953 185 953 q 219 942 208 953 q 229 875 229 931 q 190 561 229 742 q 153 440 174 489 q 118 392 132 392 q 111 396 115 392 q 97 478 97 415 q 117 700 97 558 q 169 936 144 904 z "},"\"":{"ha":388,"x_min":68,"x_max":315,"o":"m 96 876 q 121 889 108 889 q 138 881 131 889 q 150 808 150 864 q 136 681 150 744 q 104 617 122 617 q 83 649 93 617 q 69 725 72 681 q 69 738 69 729 q 68 751 68 747 q 96 876 68 846 m 258 881 q 282 896 278 896 q 297 889 286 896 q 315 842 315 881 q 308 778 315 822 q 281 676 299 719 q 249 633 263 633 q 240 639 244 633 q 229 736 229 658 q 232 801 229 781 q 242 857 238 843 q 258 881 246 871 z "},"&":{"ha":507,"x_min":72,"x_max":428,"o":"m 331 229 q 360 244 339 244 q 388 231 378 244 q 394 183 394 217 q 390 149 394 161 q 375 136 386 136 q 341 159 358 136 q 324 206 324 182 q 331 229 324 218 m 175 846 q 233 858 203 858 q 335 826 289 858 q 381 749 381 793 q 357 711 381 711 q 310 735 340 711 q 231 771 265 771 q 165 721 190 771 q 153 674 153 696 q 183 619 153 642 q 211 604 203 604 q 235 613 218 604 q 281 624 260 624 q 326 610 307 624 q 344 574 344 596 q 296 528 344 536 q 256 517 264 522 q 236 488 249 513 q 219 419 219 454 l 219 410 q 243 358 219 382 q 289 336 265 336 l 300 336 q 378 351 346 339 q 424 363 408 363 l 425 363 q 428 356 428 360 q 390 296 428 326 q 275 254 343 254 q 258 256 264 254 q 165 314 201 265 q 128 425 128 363 q 140 492 128 458 q 157 546 157 533 q 151 553 157 553 q 113 582 140 553 q 79 629 85 611 q 72 672 72 653 q 101 773 72 722 q 175 846 131 824 m 194 938 q 221 974 194 974 l 226 974 q 240 943 242 972 q 222 875 238 875 q 204 898 214 875 q 194 938 194 921 z "},"'":{"ha":229,"x_min":69,"x_max":158,"o":"m 82 892 q 115 911 94 911 q 150 889 139 911 q 158 808 158 872 q 142 654 158 697 q 119 626 129 626 q 89 671 106 626 q 69 808 69 721 q 82 892 69 871 z "},"(":{"ha":382,"x_min":75,"x_max":307,"o":"m 238 892 q 269 901 251 901 q 303 888 294 901 q 307 875 307 881 q 294 844 307 867 q 199 642 226 724 q 172 471 172 560 q 174 428 172 443 q 281 103 183 257 q 304 50 304 64 q 290 38 304 38 q 246 51 275 38 q 157 149 203 71 q 88 321 111 226 q 75 463 75 372 q 89 610 75 558 q 156 776 107 682 q 238 892 206 869 z "},")":{"ha":368,"x_min":74,"x_max":293,"o":"m 74 846 q 82 867 74 858 q 103 875 90 875 q 142 861 119 875 q 248 695 203 824 q 293 442 293 567 q 289 375 293 406 q 247 223 278 301 q 181 101 217 144 q 144 68 167 85 q 110 51 121 51 q 106 53 107 51 q 111 92 100 58 q 168 299 154 232 q 182 432 182 365 l 182 446 q 99 785 179 651 q 74 846 74 826 z "},"*":{"ha":590,"x_min":71,"x_max":515,"o":"m 249 911 q 261 915 256 915 q 292 854 282 915 q 300 786 300 813 q 310 765 300 765 q 354 793 319 765 q 460 860 439 860 l 463 858 q 464 854 464 857 q 408 767 464 839 l 365 711 l 413 707 q 515 688 515 697 q 483 667 515 681 q 435 653 451 653 q 403 643 403 653 q 433 597 403 633 q 493 503 493 528 q 492 499 493 500 q 483 496 489 496 q 392 553 457 496 q 329 597 338 597 l 328 597 q 323 552 325 594 q 317 470 321 510 q 307 431 314 431 q 283 506 299 431 q 267 581 268 575 q 261 588 264 588 q 193 528 254 588 q 113 461 124 461 q 100 481 100 461 q 157 588 100 515 q 182 631 182 622 q 143 639 182 639 q 71 667 71 639 q 147 700 71 690 q 189 714 189 706 q 176 728 189 719 q 113 787 154 743 q 71 838 71 831 q 93 853 71 853 q 108 850 97 853 q 181 807 129 844 q 206 790 192 800 q 228 774 221 779 q 236 769 235 769 q 238 838 236 803 q 249 911 239 904 z "},",":{"ha":256,"x_min":72,"x_max":185,"o":"m 128 275 q 161 286 139 289 q 180 280 176 283 q 185 261 183 276 l 185 253 q 108 54 185 176 q 82 22 90 22 q 72 64 72 22 q 86 172 72 118 q 128 275 104 249 z "},"-":{"ha":407,"x_min":72,"x_max":336,"o":"m 72 425 q 72 432 72 425 q 86 453 72 439 q 143 467 100 467 q 200 465 176 467 q 317 450 299 463 q 336 426 336 438 q 217 388 336 396 q 154 385 192 385 q 85 401 104 385 q 72 425 72 411 z "},".":{"ha":247,"x_min":71,"x_max":178,"o":"m 83 261 q 117 275 96 275 q 158 259 139 275 q 178 221 178 243 q 160 182 178 197 q 121 167 143 167 q 85 182 99 167 q 71 224 71 196 q 83 261 71 249 z "},"/":{"ha":478,"x_min":78,"x_max":401,"o":"m 350 850 q 385 867 364 868 q 393 865 390 865 q 398 861 396 864 q 401 854 400 858 q 401 843 401 850 l 401 828 q 226 356 397 700 q 118 164 140 186 q 98 148 101 149 q 86 156 94 147 q 78 182 78 167 q 207 528 78 226 q 306 758 271 676 q 350 850 338 835 z "},":":{"ha":267,"x_min":72,"x_max":194,"o":"m 74 233 q 91 280 74 261 q 132 299 108 299 q 179 276 158 299 q 194 236 194 260 q 154 174 194 193 q 132 167 144 167 q 96 185 118 167 q 74 233 74 204 m 92 674 q 124 688 110 688 q 157 672 138 688 q 175 636 175 656 q 162 597 175 611 q 129 582 149 582 q 92 599 108 582 q 72 638 72 615 q 92 674 72 658 z "},";":{"ha":299,"x_min":76,"x_max":226,"o":"m 133 268 q 158 286 151 286 q 181 281 165 286 q 199 257 199 274 q 198 249 199 256 q 197 239 197 243 q 150 117 192 190 q 86 44 108 44 q 76 86 76 44 q 95 188 76 129 q 133 268 114 247 m 135 663 q 172 682 150 682 q 210 666 193 682 q 226 629 226 650 q 219 603 226 614 q 175 579 208 579 q 126 608 136 579 q 121 632 121 621 q 135 663 121 644 z "},"?":{"ha":464,"x_min":74,"x_max":389,"o":"m 124 243 q 141 263 133 258 q 167 267 149 267 q 214 249 196 267 q 232 204 232 231 q 224 171 232 188 q 167 138 208 138 q 138 147 149 138 q 111 199 111 165 q 124 243 111 219 m 199 911 q 246 917 221 917 q 348 879 308 917 q 389 781 388 842 q 329 628 389 721 q 253 494 290 571 q 199 403 218 422 l 181 385 l 165 401 q 153 442 153 415 q 167 519 153 468 q 254 697 190 613 q 296 789 296 753 q 251 825 296 825 q 144 763 190 825 q 96 725 117 725 q 74 771 74 725 q 110 857 74 815 q 199 911 147 899 z "},"A":{"ha":669,"x_min":75,"x_max":594,"o":"m 438 476 q 398 610 438 481 q 358 743 358 740 q 353 756 358 751 l 351 756 q 320 714 339 740 q 271 613 301 688 q 240 475 240 539 q 338 467 240 467 q 438 476 438 467 m 338 839 q 371 860 356 860 q 465 701 407 860 q 528 515 492 632 q 554 444 546 450 q 557 428 557 443 q 574 332 557 399 q 594 211 594 238 q 588 179 594 193 q 568 164 579 164 q 528 197 550 164 q 489 285 507 229 q 463 379 471 339 l 457 404 l 424 399 q 303 389 394 394 l 214 385 l 188 306 q 149 204 161 228 q 118 176 136 181 q 110 175 115 175 q 85 188 96 175 q 75 217 75 200 q 76 222 75 218 q 76 226 76 225 q 136 425 89 290 q 225 650 183 560 q 338 839 289 788 z "},"B":{"ha":651,"x_min":71,"x_max":578,"o":"m 401 503 q 318 517 365 517 q 217 500 269 517 l 165 483 l 161 424 q 158 374 161 415 q 153 319 154 333 q 150 288 150 289 q 164 271 150 275 q 211 265 182 265 q 332 290 268 265 q 439 354 396 315 q 486 429 486 397 q 401 503 486 472 m 382 729 q 383 743 383 733 q 349 792 383 775 q 265 808 314 808 q 200 799 228 808 l 169 788 l 169 581 l 193 585 q 246 604 218 590 q 326 665 275 618 q 382 729 378 713 m 213 875 q 268 881 231 881 q 338 872 308 881 q 426 822 394 856 q 457 744 457 788 q 435 675 457 710 q 390 625 417 646 q 374 607 374 611 q 418 585 374 599 q 499 541 456 574 q 558 479 542 508 q 578 410 578 447 q 560 339 578 378 q 499 263 543 306 q 418 206 454 221 q 268 174 353 174 q 154 201 190 174 q 119 210 133 217 q 106 206 114 206 q 72 236 79 206 q 71 269 71 239 q 78 527 71 350 q 92 756 86 704 q 106 822 100 814 q 150 849 111 829 q 213 875 189 868 z "},"C":{"ha":719,"x_min":74,"x_max":649,"o":"m 81 614 q 198 822 103 728 q 403 917 293 917 q 572 840 496 917 q 629 742 629 783 q 615 725 629 725 q 557 771 603 725 q 415 846 482 846 q 333 825 378 846 q 204 708 251 788 q 157 535 157 628 q 174 429 157 481 q 246 310 197 353 q 357 267 294 267 q 486 297 406 267 q 615 364 567 328 q 644 378 639 383 q 643 347 649 374 q 596 279 638 318 q 360 179 493 179 q 268 196 311 179 q 183 256 231 210 q 114 344 136 301 q 74 533 74 422 q 81 614 74 569 z "},"D":{"ha":674,"x_min":69,"x_max":601,"o":"m 294 799 q 183 838 231 832 l 138 842 l 143 796 q 154 703 151 719 q 157 542 157 664 l 157 454 l 154 251 l 181 251 q 313 284 235 251 q 428 354 392 317 q 510 525 503 432 q 510 539 510 531 q 511 550 511 547 q 490 619 511 576 q 412 719 465 669 q 294 799 358 768 m 90 897 q 165 911 114 911 q 289 889 238 911 q 482 760 401 840 q 601 519 601 642 q 565 378 601 449 q 433 240 524 293 q 244 188 343 188 q 175 196 208 188 q 125 203 150 203 l 117 203 l 108 203 q 81 215 89 203 q 74 260 74 226 q 75 301 74 285 q 78 476 78 371 q 71 843 78 790 q 69 867 69 853 q 90 897 69 885 z "},"E":{"ha":586,"x_min":71,"x_max":508,"o":"m 115 853 q 289 860 135 857 l 335 860 q 440 855 415 860 q 464 833 464 850 q 463 828 464 832 q 463 824 463 825 q 435 794 461 807 q 344 782 410 782 q 314 783 336 782 q 276 783 292 783 l 142 786 l 146 682 q 153 569 151 575 q 247 558 154 563 q 374 540 339 556 q 403 521 403 526 q 400 514 403 519 q 238 476 374 483 l 150 472 l 146 403 q 142 293 142 339 q 147 233 142 240 q 200 219 156 219 q 318 229 242 219 q 450 239 396 239 q 508 226 508 239 q 371 172 508 206 q 235 154 293 154 q 101 211 138 154 q 89 266 92 226 q 83 464 86 306 q 72 760 79 671 q 71 800 71 776 q 79 837 71 828 q 115 853 88 846 z "},"F":{"ha":576,"x_min":72,"x_max":500,"o":"m 122 872 q 253 881 143 881 l 304 881 q 482 865 461 879 q 500 839 500 853 q 486 814 500 826 q 449 802 475 804 q 315 800 422 800 q 154 794 160 800 q 153 781 153 793 q 157 738 153 763 q 169 606 164 685 l 174 525 l 261 525 l 275 525 q 370 518 332 525 q 408 501 408 511 q 340 470 408 488 q 222 453 271 453 q 213 453 218 453 q 206 454 208 454 q 185 456 196 456 q 178 455 181 456 q 174 451 175 454 q 172 447 172 449 q 171 439 171 444 q 151 154 165 179 q 138 142 144 142 q 110 172 125 142 q 92 449 96 201 q 79 761 88 708 q 72 815 72 807 q 83 844 72 829 q 122 872 99 865 z "},"G":{"ha":853,"x_min":74,"x_max":778,"o":"m 403 911 q 450 915 426 915 q 606 865 538 915 q 675 747 675 815 q 672 722 675 728 q 656 713 668 715 q 652 712 654 713 q 649 711 650 711 q 597 751 636 711 q 464 817 533 817 l 447 817 q 273 725 358 811 q 165 533 188 639 q 158 467 158 496 q 197 316 158 385 q 299 217 235 247 q 369 203 326 203 q 461 222 424 203 q 527 271 493 238 q 582 340 561 304 q 603 383 603 375 q 586 397 603 394 q 515 399 569 399 l 500 399 q 376 411 396 400 q 347 450 347 425 q 386 489 347 479 q 564 500 400 494 q 640 501 593 501 q 748 494 718 501 q 778 471 778 488 q 752 440 778 457 q 693 415 726 424 l 656 407 l 651 365 q 570 213 644 286 q 406 122 496 139 q 367 118 386 118 q 192 190 274 118 q 83 369 111 261 q 74 468 74 407 q 85 578 74 533 q 213 793 115 696 q 403 911 311 892 z "},"H":{"ha":688,"x_min":69,"x_max":619,"o":"m 93 875 q 125 883 110 893 q 151 682 142 874 l 157 563 l 293 563 q 478 557 425 563 l 524 551 l 524 686 l 524 733 q 536 844 524 824 q 575 874 550 874 q 607 847 597 874 q 619 592 619 819 q 614 368 619 457 q 579 138 601 138 q 554 169 569 138 q 526 415 529 229 l 526 490 l 507 485 q 322 476 494 482 l 156 472 l 151 332 q 122 103 142 103 l 121 103 q 94 127 108 106 q 75 174 81 149 q 69 497 69 201 q 75 806 69 760 q 93 875 82 861 z "},"I":{"ha":506,"x_min":78,"x_max":428,"o":"m 282 738 q 289 631 283 708 q 297 488 294 553 q 300 363 300 422 l 300 225 l 360 222 q 428 206 428 218 q 424 196 428 203 q 356 156 408 171 q 238 140 303 140 q 186 143 219 140 q 107 178 107 153 q 181 219 107 211 q 225 232 225 225 q 223 259 225 235 q 217 326 221 283 q 213 411 214 369 q 207 547 211 450 q 201 671 203 643 l 196 764 l 151 764 q 78 807 78 767 q 107 844 78 831 q 214 871 136 858 q 318 881 279 881 q 421 850 421 881 q 390 822 421 839 q 321 794 358 804 l 282 783 l 282 738 z "},"J":{"ha":653,"x_min":78,"x_max":578,"o":"m 317 892 q 443 901 371 901 q 574 881 561 901 q 565 861 578 874 q 456 828 549 842 l 424 824 l 429 775 q 450 406 449 575 l 450 367 q 443 229 450 274 q 414 133 436 185 q 254 4 360 4 q 214 10 242 4 q 122 75 167 22 q 78 167 78 128 q 81 183 78 178 q 96 200 86 200 q 129 168 110 200 q 238 89 181 89 q 326 161 293 89 q 360 253 351 215 q 368 371 368 292 q 365 496 368 393 q 357 756 360 725 l 353 818 l 300 818 q 218 846 218 818 q 317 892 218 874 z "},"K":{"ha":724,"x_min":69,"x_max":644,"o":"m 453 856 q 544 945 519 924 q 581 967 569 967 l 582 967 q 603 939 603 964 q 458 740 603 899 q 343 607 357 625 l 304 557 l 363 496 q 547 280 458 394 q 643 133 636 165 q 644 118 644 128 q 617 89 644 89 q 603 90 607 89 q 497 180 576 96 q 339 365 417 264 q 250 471 258 471 q 206 417 242 471 q 160 333 171 363 q 146 264 146 299 q 135 219 146 238 q 111 201 125 201 q 79 261 79 201 q 72 585 79 324 q 69 783 69 760 q 74 886 69 863 q 93 915 79 910 q 100 917 96 917 q 151 660 143 917 q 160 507 157 510 q 167 510 161 504 q 182 529 174 517 q 288 677 228 606 q 453 856 347 749 z "},"L":{"ha":626,"x_min":71,"x_max":549,"o":"m 94 907 q 119 925 107 925 q 147 872 142 925 q 154 550 151 819 l 156 210 l 326 210 l 372 210 q 546 194 538 210 q 549 186 549 189 q 526 159 549 172 q 469 140 503 146 q 429 128 439 135 q 343 119 419 119 q 183 132 236 119 q 140 144 154 139 q 110 166 125 149 q 90 200 96 183 q 80 263 85 217 q 74 355 75 310 q 72 492 74 400 q 71 611 71 535 q 94 907 71 871 z "},"M":{"ha":876,"x_min":72,"x_max":806,"o":"m 132 913 q 153 925 142 925 q 187 894 167 925 q 247 782 207 864 q 362 563 301 674 q 428 453 422 453 q 474 547 433 453 q 635 850 564 757 q 707 915 681 915 q 725 911 717 915 q 754 868 749 901 q 764 685 760 835 q 785 369 772 488 q 806 176 806 190 q 794 146 806 160 q 768 132 782 132 q 733 160 746 132 q 718 230 726 176 q 701 352 710 283 q 692 429 693 421 q 681 608 686 464 q 669 739 675 739 q 556 521 656 739 q 474 351 483 361 q 442 339 461 339 q 407 351 422 339 q 333 460 390 365 q 286 536 314 492 q 240 612 258 581 q 204 678 221 643 q 183 710 189 710 q 169 595 178 710 q 156 349 160 481 q 145 186 151 221 q 121 151 139 151 q 99 161 106 151 q 85 201 92 171 q 72 336 72 269 q 76 449 72 381 q 103 767 88 638 q 132 913 119 897 z "},"N":{"ha":664,"x_min":68,"x_max":594,"o":"m 536 879 q 561 889 543 889 q 579 887 574 889 q 589 869 585 885 q 594 826 593 853 q 594 743 594 799 l 594 640 q 578 290 593 386 q 525 194 563 194 q 495 208 508 194 q 431 294 482 222 q 174 658 213 599 q 159 679 165 671 q 151 686 153 688 l 146 517 q 131 265 142 335 q 99 194 121 194 q 84 199 89 194 q 75 221 79 203 q 69 272 71 239 q 68 365 68 306 q 69 417 68 379 q 69 478 69 454 q 71 733 71 575 l 71 786 l 71 810 q 101 882 71 882 q 131 865 117 882 q 196 768 146 849 q 440 382 406 438 q 460 352 450 367 q 477 326 469 338 q 491 306 485 315 q 501 293 497 297 q 504 290 504 289 l 510 543 q 536 879 515 853 z "},"O":{"ha":760,"x_min":74,"x_max":689,"o":"m 485 804 q 386 828 438 828 q 258 783 317 828 q 175 660 200 738 q 150 526 150 585 q 156 471 150 507 q 236 308 174 369 q 383 246 299 246 l 386 246 q 458 258 431 247 q 521 301 486 269 q 621 546 621 392 q 585 701 621 631 q 485 804 550 772 m 276 892 q 351 908 314 908 q 366 908 356 908 q 383 907 376 907 q 485 887 444 904 q 572 824 525 869 q 689 535 689 710 q 572 246 689 361 q 493 185 528 203 q 407 164 458 168 q 396 163 403 164 q 385 163 389 163 q 212 227 290 163 q 94 401 133 292 q 74 536 74 460 q 107 708 74 636 q 117 732 111 718 q 127 753 124 746 q 131 764 131 761 q 160 807 132 774 q 210 857 189 840 q 276 892 231 872 z "},"P":{"ha":667,"x_min":71,"x_max":593,"o":"m 210 919 q 253 924 231 924 q 399 891 321 924 q 522 811 476 858 q 593 656 593 739 q 550 531 593 592 q 449 451 515 481 q 317 421 383 421 q 192 465 232 421 q 181 489 181 476 q 190 497 181 497 q 199 496 196 497 q 210 494 201 494 q 346 522 268 494 q 421 568 385 538 q 478 676 478 618 q 456 740 478 713 q 364 799 428 776 q 238 822 300 822 q 146 800 176 822 q 136 772 136 790 q 147 650 136 739 q 174 294 174 414 q 154 163 174 194 q 133 140 142 140 q 114 153 126 140 q 92 251 100 167 q 71 644 71 483 q 72 696 71 682 q 76 808 76 763 l 76 817 q 103 868 76 842 q 210 919 138 903 z "},"Q":{"ha":788,"x_min":75,"x_max":715,"o":"m 479 790 q 421 804 464 799 q 400 806 414 806 q 226 717 297 806 q 156 501 156 628 q 157 472 156 482 q 222 290 164 364 q 369 203 281 217 q 411 199 397 199 q 432 213 432 199 q 424 243 432 222 q 415 281 415 264 q 449 313 415 313 q 494 276 474 313 q 522 240 518 240 q 560 279 531 240 q 603 344 590 318 q 631 489 631 404 q 618 597 631 543 q 561 708 608 643 q 479 790 514 772 m 75 514 q 137 738 75 639 q 297 875 199 836 q 381 888 329 888 q 507 865 456 888 q 563 842 558 843 q 646 760 599 832 q 707 624 693 688 q 715 540 715 582 q 681 367 715 451 q 589 228 647 282 l 544 185 l 561 153 q 591 79 575 126 q 607 17 607 32 q 597 3 607 3 q 547 47 588 3 q 492 117 507 90 l 476 146 l 414 142 q 385 140 404 140 q 186 229 275 140 q 75 514 75 339 z "},"R":{"ha":690,"x_min":71,"x_max":611,"o":"m 333 772 q 279 781 308 781 q 190 761 233 781 l 168 750 l 168 626 l 167 501 l 206 506 q 267 522 243 508 q 326 571 290 535 q 397 699 397 642 q 333 772 397 751 m 246 867 q 285 869 258 869 q 390 847 342 869 q 494 697 494 799 q 474 615 494 651 q 400 524 454 578 l 340 464 l 382 432 q 528 280 458 372 q 610 133 599 188 q 611 122 611 129 q 603 110 611 110 q 456 229 579 110 q 299 370 351 331 q 190 429 246 410 l 161 440 l 157 403 q 151 342 156 396 q 142 244 147 288 q 131 190 136 201 q 111 176 122 176 q 83 194 96 176 q 71 304 71 213 q 86 564 71 396 q 99 732 99 701 q 98 742 99 736 q 97 750 97 747 q 139 822 97 789 q 246 867 181 856 z "},"S":{"ha":676,"x_min":78,"x_max":604,"o":"m 272 935 q 338 943 303 943 q 442 921 397 943 q 500 872 478 903 q 522 813 522 842 q 521 799 522 803 q 501 781 517 781 q 456 808 486 781 q 347 850 410 850 q 321 849 331 850 q 207 803 257 843 q 157 721 157 764 q 169 695 157 703 q 222 676 182 688 q 422 610 343 646 q 554 495 504 569 q 604 344 604 421 q 556 218 604 268 q 388 151 493 151 q 278 171 332 151 q 131 311 131 228 q 139 351 131 331 q 158 382 149 382 q 164 361 164 382 q 203 290 164 321 q 314 243 242 258 q 368 238 340 238 q 499 299 465 238 q 514 363 514 325 q 493 443 514 410 q 406 531 460 499 q 247 589 351 563 q 112 642 146 615 q 78 721 78 668 q 133 851 78 790 q 272 935 188 911 z "},"T":{"ha":803,"x_min":78,"x_max":725,"o":"m 240 872 q 419 879 310 879 q 692 858 596 879 q 725 843 725 850 q 714 829 725 840 q 542 793 688 806 q 436 778 442 786 q 431 668 431 769 q 422 415 429 563 q 408 233 414 268 q 389 182 401 194 q 363 169 378 169 q 319 210 331 169 q 306 351 306 256 q 314 530 306 428 q 330 705 322 632 q 338 782 338 778 q 321 786 338 786 q 255 783 308 786 q 172 779 201 779 q 97 790 113 779 q 78 824 78 801 q 88 844 78 836 q 240 872 107 860 z "},"U":{"ha":661,"x_min":72,"x_max":590,"o":"m 78 851 q 97 865 86 865 q 118 857 106 865 q 133 803 128 850 q 150 564 139 757 q 168 427 156 475 q 207 343 181 379 q 293 297 242 297 q 361 319 325 297 q 463 459 429 365 q 503 721 496 553 q 513 857 510 853 q 535 844 517 860 q 575 765 560 824 q 590 635 590 707 q 576 504 590 564 q 386 226 529 297 q 299 204 343 204 q 174 260 229 204 q 89 415 118 315 q 72 743 72 472 q 78 851 72 840 z "},"V":{"ha":724,"x_min":78,"x_max":647,"o":"m 613 917 q 636 938 631 938 q 646 918 642 938 q 647 900 647 914 q 596 609 647 824 q 499 283 544 394 q 396 176 454 176 q 329 213 363 176 q 191 495 293 251 q 79 810 89 739 q 78 815 79 811 q 78 822 78 819 q 106 867 78 867 q 147 817 119 867 q 240 628 175 768 q 388 338 375 338 q 501 647 401 338 q 569 839 549 789 q 613 917 589 889 z "},"W":{"ha":1046,"x_min":78,"x_max":974,"o":"m 81 842 q 103 858 86 858 q 124 849 115 858 q 178 703 132 840 q 311 342 299 342 q 328 372 315 342 q 377 528 344 414 q 437 731 410 643 q 475 828 464 819 q 503 838 486 838 q 544 818 525 838 q 678 524 585 775 q 756 339 744 339 l 757 339 q 771 369 764 346 q 899 769 867 689 q 951 843 931 843 q 969 817 964 843 q 974 774 974 796 q 951 622 974 728 q 877 342 918 456 q 801 210 836 229 q 763 197 781 197 q 688 258 725 197 q 596 468 651 318 q 533 626 554 582 q 510 668 514 668 q 503 663 508 668 q 467 558 490 647 q 351 217 379 257 q 308 190 333 190 q 258 225 278 190 q 172 471 254 235 q 78 821 78 754 q 81 842 78 831 z "},"X":{"ha":676,"x_min":78,"x_max":601,"o":"m 506 881 q 561 917 544 917 q 571 915 568 917 q 574 907 574 913 q 571 886 574 901 q 468 681 563 828 q 401 571 401 578 q 461 472 401 565 q 574 290 547 339 q 601 213 601 240 l 601 204 q 594 182 599 186 q 571 176 590 178 l 560 176 q 538 183 547 176 q 503 217 528 190 q 399 361 461 258 q 329 464 335 464 q 292 414 325 464 q 258 357 258 364 q 213 284 258 350 q 147 199 167 218 q 100 164 114 164 q 88 169 96 164 q 78 194 78 176 q 156 372 78 239 q 193 443 193 435 q 232 507 193 451 l 271 565 l 210 663 q 106 876 106 826 q 115 901 106 892 q 131 910 124 910 q 163 886 143 910 q 239 788 183 863 q 338 665 331 665 q 406 754 344 665 q 506 881 471 849 z "},"Y":{"ha":629,"x_min":78,"x_max":553,"o":"m 85 914 q 104 924 93 924 q 138 901 121 924 q 221 763 156 879 q 313 609 292 642 q 342 576 333 576 q 346 578 344 576 q 431 736 353 583 q 499 865 486 846 q 529 886 511 885 q 549 885 546 888 q 553 868 553 883 q 367 415 553 792 q 215 146 233 146 q 207 175 207 146 q 208 207 207 194 q 239 333 213 265 q 261 390 247 354 q 278 432 275 425 l 289 463 l 257 511 q 179 640 228 553 q 78 889 78 824 q 85 914 78 904 z "},"Z":{"ha":781,"x_min":76,"x_max":704,"o":"m 335 911 q 451 914 357 914 l 492 914 q 621 906 597 913 q 644 874 644 900 q 600 800 644 854 q 452 617 564 757 q 314 446 340 478 q 189 272 189 292 l 190 271 l 193 271 q 271 283 203 271 q 546 310 403 310 q 614 307 572 310 q 703 293 697 299 q 704 288 704 292 q 689 262 704 276 q 657 242 674 247 q 511 219 638 235 q 339 194 415 210 q 139 165 200 165 q 111 168 122 165 q 76 211 76 182 q 118 303 76 240 q 407 668 210 438 q 522 818 522 803 q 475 824 522 824 q 363 821 447 824 q 240 818 279 818 q 151 826 163 818 q 133 854 133 840 q 146 876 133 867 q 335 911 163 893 z "},"^":{"ha":560,"x_min":78,"x_max":482,"o":"m 272 850 q 296 858 285 858 q 325 843 313 858 q 390 718 339 825 q 461 554 440 611 q 482 464 482 492 q 471 438 482 442 q 461 436 468 436 q 417 496 440 436 q 343 653 385 569 q 296 738 301 738 q 188 553 285 738 q 101 435 126 435 q 78 463 78 435 q 117 581 78 501 q 236 799 164 676 q 272 850 261 842 z "},"`":{"ha":329,"x_min":75,"x_max":257,"o":"m 75 917 q 83 938 75 929 q 104 946 92 946 q 163 911 132 946 q 230 818 203 867 q 257 743 257 769 q 239 722 257 722 q 147 797 208 722 q 75 917 75 888 z "},"a":{"ha":750,"x_min":75,"x_max":671,"o":"m 431 588 q 381 614 404 614 q 280 563 340 614 q 190 456 219 513 q 160 339 160 394 q 193 247 160 278 q 235 228 213 228 q 243 228 238 228 q 253 229 249 229 q 363 273 310 233 q 442 369 415 313 q 458 485 458 410 l 458 560 l 431 588 m 324 696 q 376 707 357 707 q 419 700 392 707 q 471 671 443 694 q 510 624 499 647 q 533 588 519 604 q 561 483 547 571 q 598 300 579 367 q 650 171 617 233 q 671 118 671 132 q 657 111 671 111 q 579 138 618 111 q 519 219 554 156 q 485 282 488 282 q 433 235 481 282 q 351 169 378 182 q 233 142 296 142 q 200 146 213 142 q 110 217 144 164 q 75 338 75 271 q 78 376 75 364 q 169 571 94 474 q 324 696 243 668 z "},"b":{"ha":651,"x_min":71,"x_max":578,"o":"m 321 590 q 239 607 286 607 q 193 606 194 607 q 188 429 193 574 q 179 265 182 285 q 176 226 176 250 q 179 208 176 211 q 257 199 188 199 q 322 204 304 199 q 388 244 351 211 q 442 314 424 278 q 460 392 460 350 q 422 506 460 451 q 321 590 385 561 m 96 989 q 131 1011 108 1011 q 157 996 150 1011 q 182 750 167 975 l 188 682 l 219 688 q 257 692 239 692 q 474 594 369 692 q 549 493 517 556 q 574 431 571 449 q 578 364 578 414 q 558 254 578 294 q 340 113 494 125 q 311 111 331 111 q 179 150 235 111 q 128 176 144 174 q 83 255 96 181 q 71 518 71 329 q 96 989 71 942 z "},"c":{"ha":601,"x_min":75,"x_max":526,"o":"m 289 721 q 346 729 318 729 q 446 703 403 729 q 489 638 489 676 q 485 615 489 621 q 471 606 482 608 q 431 617 454 601 q 354 638 394 638 q 243 594 290 638 q 172 463 172 532 q 178 422 172 440 q 274 311 199 349 q 357 292 313 292 l 378 292 q 449 299 425 293 q 521 329 474 306 q 522 330 522 329 q 524 331 522 331 q 526 325 526 331 q 510 279 526 310 q 446 225 490 244 q 347 206 401 206 q 301 210 325 206 q 140 299 204 226 q 75 460 75 372 q 88 531 75 494 q 170 649 111 593 q 289 721 229 704 z "},"d":{"ha":650,"x_min":75,"x_max":581,"o":"m 457 565 q 346 622 417 622 q 215 561 271 622 q 174 435 174 515 q 209 328 175 369 q 296 288 243 288 q 319 290 303 288 q 408 361 363 299 q 468 497 453 424 q 474 528 474 525 q 457 565 474 540 m 492 953 q 508 960 506 960 l 511 960 q 534 949 519 960 q 553 929 549 939 q 569 656 558 914 q 581 283 581 397 q 579 243 581 249 q 564 204 575 210 l 561 203 l 558 203 q 513 258 533 203 q 496 297 500 292 q 494 299 496 299 q 457 268 485 299 q 293 190 388 190 q 211 208 249 190 q 139 263 175 224 q 92 336 103 301 q 75 439 75 386 q 118 595 75 524 q 236 701 161 667 q 346 725 288 725 q 421 711 386 725 q 458 699 454 697 q 461 806 461 704 l 461 838 q 467 922 461 899 q 492 953 474 944 z "},"e":{"ha":626,"x_min":75,"x_max":554,"o":"m 431 578 q 361 593 415 593 q 325 589 339 593 q 218 521 265 571 q 189 475 189 489 q 196 469 189 469 q 204 471 200 469 q 343 481 218 475 q 471 490 467 486 q 472 494 472 493 q 457 537 472 506 q 431 578 442 568 m 311 678 q 381 689 351 689 q 531 578 476 689 q 554 483 554 526 q 537 428 554 438 q 425 410 519 418 q 318 404 347 404 q 192 421 229 404 q 172 426 175 428 q 165 410 168 424 q 164 396 164 406 q 181 326 164 360 q 242 274 196 297 q 335 251 289 251 q 434 265 357 251 q 528 285 511 278 q 537 285 535 288 q 539 268 539 282 q 513 223 539 244 q 439 188 486 201 q 354 174 396 174 q 338 174 350 174 q 319 175 326 175 q 182 212 233 179 q 99 315 131 244 q 75 394 75 363 q 86 456 75 414 q 167 595 107 536 q 311 678 228 654 z "},"f":{"ha":636,"x_min":78,"x_max":560,"o":"m 351 961 q 410 974 381 974 q 489 951 451 974 q 549 886 526 928 q 560 840 560 861 q 549 799 560 817 q 525 782 539 782 q 501 797 514 782 q 450 856 465 843 q 415 868 435 868 q 357 835 390 868 q 320 783 331 808 q 303 713 310 758 l 299 683 l 368 681 q 456 668 431 678 q 485 636 482 658 q 485 632 485 635 q 486 628 486 629 q 461 606 486 617 q 364 583 439 597 l 293 572 l 293 550 q 304 388 293 510 q 311 253 311 288 q 296 168 311 192 q 276 153 286 153 q 257 172 265 153 q 219 349 246 203 q 192 532 192 496 l 192 558 l 151 563 q 78 610 78 571 q 142 657 78 643 q 185 669 179 664 q 192 694 192 674 q 231 844 192 767 q 284 911 247 875 q 351 961 321 947 z "},"g":{"ha":579,"x_min":75,"x_max":507,"o":"m 332 599 q 300 608 314 608 q 261 594 285 608 q 176 506 206 561 q 157 407 157 469 q 160 349 157 360 q 181 322 163 338 q 243 303 201 303 q 353 349 306 303 q 392 417 392 386 q 389 442 392 422 q 383 514 383 481 q 332 599 382 574 m 235 685 q 308 704 274 704 q 408 665 361 704 q 450 642 433 646 q 482 611 474 635 q 490 524 490 588 l 490 504 l 490 478 q 497 360 490 399 q 507 211 507 306 q 494 68 507 103 q 421 -29 472 7 q 301 -65 369 -65 q 221 -51 249 -65 q 168 -9 197 -39 q 139 33 139 21 q 144 43 139 43 q 175 31 149 43 q 253 11 214 11 q 303 19 278 11 q 383 76 360 39 q 410 196 406 113 q 411 246 411 217 q 401 281 411 281 q 371 264 394 281 q 309 231 335 239 q 243 222 283 222 l 239 222 q 138 256 179 222 q 81 347 96 289 q 75 407 75 369 q 99 542 75 490 q 158 624 117 581 q 235 685 199 667 z "},"h":{"ha":604,"x_min":69,"x_max":531,"o":"m 89 918 q 106 932 94 932 q 124 917 117 932 q 139 689 129 906 q 150 475 146 479 l 163 493 q 171 507 168 503 q 258 604 207 569 q 363 639 310 639 q 472 592 425 639 q 515 526 503 561 q 531 389 531 481 q 522 282 531 325 q 501 208 514 240 q 479 176 488 176 q 447 356 461 176 q 433 480 440 447 q 404 533 425 513 q 353 553 383 553 q 251 483 292 553 q 182 263 210 413 q 156 160 168 181 q 126 144 146 144 q 92 164 103 144 q 72 481 78 183 q 69 681 69 639 q 89 918 69 879 z "},"i":{"ha":275,"x_min":71,"x_max":203,"o":"m 111 668 q 136 681 122 681 q 167 663 153 681 q 178 614 178 647 q 175 554 178 607 q 159 349 171 458 q 138 218 147 239 q 110 190 125 190 q 89 201 100 190 q 76 227 79 211 q 71 300 74 243 l 71 331 q 92 622 71 531 q 111 668 100 657 m 110 881 q 140 896 126 896 q 169 886 151 896 q 203 831 203 869 q 181 778 203 800 q 146 761 164 761 q 110 776 129 761 q 90 828 90 794 q 110 881 90 863 z "},"j":{"ha":450,"x_min":79,"x_max":379,"o":"m 290 674 q 319 689 303 689 q 333 682 329 689 q 353 576 339 672 q 372 408 367 479 q 379 239 379 301 q 351 34 379 101 q 260 -56 324 -33 q 210 -64 236 -64 q 94 -17 133 -64 q 79 10 79 1 q 142 26 79 21 q 220 40 199 31 q 253 74 242 49 q 279 315 279 132 q 278 435 279 357 q 276 544 276 513 q 290 674 276 658 m 272 874 q 289 892 282 888 q 315 896 296 896 q 372 839 372 896 q 356 793 372 811 q 314 775 340 775 q 275 792 290 775 q 260 833 260 808 q 272 874 260 856 z "},"k":{"ha":589,"x_min":71,"x_max":513,"o":"m 108 901 q 121 913 117 913 q 146 588 144 913 q 153 414 149 414 q 228 490 164 414 q 454 690 399 690 q 469 685 464 690 q 475 674 475 679 q 463 640 475 665 q 385 525 451 614 l 324 446 l 367 400 q 472 270 431 332 q 513 176 513 208 q 508 162 513 165 q 490 158 504 158 q 394 215 456 158 q 274 353 332 271 l 261 369 l 218 328 q 158 251 178 288 q 129 210 142 219 q 114 204 124 204 q 83 222 92 204 q 71 496 71 247 q 75 682 71 603 q 87 838 81 797 q 108 901 93 878 z "},"l":{"ha":240,"x_min":69,"x_max":171,"o":"m 85 928 q 117 954 97 954 q 151 919 143 954 q 168 742 160 883 q 171 624 171 675 q 154 275 171 433 q 138 183 149 222 q 115 144 126 144 q 93 174 106 144 q 75 244 81 204 q 69 472 69 276 l 69 596 q 85 928 72 900 z "},"m":{"ha":892,"x_min":71,"x_max":819,"o":"m 308 694 q 342 704 328 704 q 406 671 375 704 q 454 581 436 638 q 471 539 467 539 q 493 576 475 539 q 593 685 533 654 q 661 703 628 703 q 776 624 732 703 q 819 419 819 546 q 811 310 819 368 q 747 153 788 153 q 715 182 732 153 q 703 282 703 206 q 703 317 703 290 q 704 363 704 344 q 705 403 704 378 q 706 438 706 428 q 676 603 706 574 q 653 614 665 614 q 572 550 617 614 q 519 419 547 513 q 481 251 490 326 q 443 161 471 168 q 429 158 432 158 q 406 189 413 158 q 397 321 400 219 q 387 482 393 435 q 363 575 381 529 q 335 621 346 621 q 314 608 326 621 q 232 470 271 567 q 183 281 193 374 q 168 175 174 196 q 146 144 163 154 q 126 139 136 139 q 93 167 106 139 q 76 379 86 179 q 71 563 71 483 q 78 662 71 635 q 104 689 86 689 q 124 664 117 689 q 142 571 132 639 q 156 500 149 510 q 171 515 158 496 q 181 532 175 522 q 308 694 246 661 z "},"n":{"ha":585,"x_min":71,"x_max":513,"o":"m 296 714 q 339 721 313 721 q 461 654 418 721 q 499 571 489 613 q 511 438 508 529 q 513 376 513 414 q 483 218 513 278 q 460 190 471 190 q 429 232 446 190 q 406 368 414 274 q 368 574 393 521 q 329 610 349 610 q 282 582 313 610 q 176 274 197 504 q 158 175 169 190 q 121 153 144 153 q 90 165 104 153 q 72 199 76 178 q 71 258 71 206 q 75 497 71 353 q 83 661 79 642 q 113 696 90 696 q 125 692 119 696 q 144 628 136 683 q 154 579 150 579 q 161 589 156 579 q 222 665 183 629 q 296 714 261 701 z "},"o":{"ha":650,"x_min":75,"x_max":576,"o":"m 381 607 q 333 618 358 618 q 218 563 265 618 q 187 505 200 540 q 174 442 174 469 q 219 321 174 371 q 326 271 264 271 q 360 275 343 271 q 440 336 406 286 q 475 442 475 386 q 446 538 475 488 q 381 607 417 588 m 260 704 q 307 710 278 710 q 469 661 399 710 q 576 443 576 586 q 550 319 576 378 q 457 213 519 253 q 324 174 394 174 q 244 188 281 174 q 122 288 169 215 q 75 444 75 361 q 85 514 75 483 q 260 704 128 664 z "},"p":{"ha":664,"x_min":69,"x_max":590,"o":"m 321 611 q 238 624 279 624 q 149 599 174 624 q 143 565 143 593 q 147 486 143 540 q 156 335 156 372 l 156 289 l 182 282 q 254 275 204 275 q 346 285 315 275 q 410 321 378 294 q 456 374 442 347 q 474 447 474 410 q 434 545 474 501 q 321 611 394 589 m 106 682 q 130 688 115 682 q 162 701 144 693 q 183 711 179 710 q 246 717 200 717 q 350 706 313 717 q 506 617 444 678 q 585 471 567 556 q 590 422 590 449 q 563 319 590 374 q 443 203 526 242 q 394 187 415 190 q 313 183 372 183 q 192 200 225 183 q 157 213 160 218 q 150 99 156 211 q 142 -6 147 21 q 125 -33 138 -33 q 118 -32 121 -33 q 80 63 89 -21 q 69 407 71 146 q 81 669 69 658 q 106 682 90 682 z "},"q":{"ha":610,"x_min":75,"x_max":539,"o":"m 385 621 q 344 631 363 631 q 249 597 299 631 q 175 514 199 564 q 157 428 157 474 q 167 372 157 393 q 223 313 181 336 q 311 289 265 289 l 324 289 q 360 297 349 292 q 388 321 371 303 q 449 504 440 378 l 453 561 l 429 586 q 385 621 404 611 m 282 700 q 328 708 306 708 q 442 653 389 708 q 488 624 469 624 q 514 614 507 624 q 531 515 522 606 q 539 110 539 419 q 535 -64 539 -47 q 519 -83 531 -83 q 494 -57 508 -83 q 461 157 468 -6 q 444 258 456 258 q 426 244 440 258 q 375 217 411 229 q 304 206 339 206 q 183 238 239 207 q 97 324 128 269 q 78 367 82 350 q 75 431 75 383 q 96 543 76 501 q 282 700 147 656 z "},"r":{"ha":600,"x_min":71,"x_max":525,"o":"m 78 686 q 100 696 86 696 q 129 683 119 696 q 144 632 139 674 q 160 579 150 579 q 183 594 165 579 q 403 669 278 669 q 468 661 439 669 q 507 644 489 656 q 525 626 525 633 q 521 622 525 625 q 505 617 518 621 q 469 606 492 613 q 428 592 446 599 q 339 562 371 574 q 278 532 307 550 q 235 499 249 514 q 212 455 222 485 q 197 395 201 425 q 190 313 193 365 q 168 190 182 206 q 132 172 150 172 q 86 204 103 172 q 71 451 74 225 l 71 547 q 78 686 71 678 z "},"s":{"ha":549,"x_min":75,"x_max":476,"o":"m 238 729 q 299 739 265 739 q 426 690 386 739 q 440 650 440 675 q 431 617 440 631 q 407 603 422 603 q 367 624 397 603 q 301 646 335 646 q 169 586 225 646 q 147 549 147 560 q 167 527 147 536 q 239 506 188 518 q 417 422 361 475 q 476 306 476 368 q 476 297 476 303 q 475 288 475 292 q 407 167 471 211 q 319 149 381 149 q 258 153 276 149 q 203 175 240 157 q 96 288 96 226 q 104 318 96 304 q 111 327 108 326 q 117 326 114 328 q 131 314 121 324 q 213 268 158 289 q 306 247 268 247 q 321 249 317 247 q 361 272 346 254 q 376 311 376 289 q 363 351 376 332 q 306 393 349 371 q 218 428 264 415 q 109 476 143 447 q 75 547 75 504 q 128 654 75 601 q 238 729 185 711 z "},"t":{"ha":600,"x_min":78,"x_max":524,"o":"m 299 868 q 321 876 313 876 q 336 844 336 876 q 331 785 336 818 q 321 706 321 717 q 358 696 321 697 q 442 686 397 694 q 488 671 488 678 q 401 635 488 656 q 360 625 386 632 q 331 618 333 618 l 310 613 l 304 546 q 301 479 301 496 q 343 338 301 358 q 442 328 360 328 l 524 328 l 522 310 q 481 247 517 272 q 392 218 446 222 q 382 217 389 218 q 371 217 375 217 q 249 271 297 217 q 200 422 200 329 q 201 467 200 450 q 210 576 207 563 q 212 591 211 586 q 212 599 213 596 q 208 601 211 601 q 201 600 206 601 q 142 592 194 597 q 117 590 132 590 q 78 614 78 590 q 79 626 78 622 q 103 653 83 643 q 172 674 122 664 l 231 686 l 242 736 q 270 822 253 783 q 299 868 288 861 z "},"u":{"ha":569,"x_min":74,"x_max":499,"o":"m 103 674 q 124 688 113 688 q 140 676 135 688 q 144 635 144 669 q 143 599 144 611 q 142 560 142 586 q 158 417 142 482 q 203 322 175 351 q 239 303 222 303 q 269 313 251 303 q 316 360 286 322 q 363 431 346 397 q 394 528 376 460 q 413 622 413 597 q 423 659 413 644 q 449 674 433 674 q 474 661 461 674 q 499 401 499 632 q 497 268 499 296 q 485 229 494 240 l 472 214 l 454 232 q 431 278 442 244 q 419 338 419 311 q 415 350 419 350 q 376 307 408 350 q 239 217 311 217 q 89 363 135 217 q 74 506 74 411 q 103 674 74 626 z "},"v":{"ha":586,"x_min":76,"x_max":514,"o":"m 471 668 q 500 701 490 701 q 508 692 504 701 q 514 651 514 679 q 487 498 514 592 q 418 319 460 404 q 365 233 386 254 q 310 210 343 211 q 258 244 285 210 q 188 369 232 279 q 76 663 76 600 q 88 686 76 682 q 111 685 100 692 q 208 506 122 678 q 303 333 294 333 q 418 560 319 333 q 471 668 456 643 z "},"w":{"ha":796,"x_min":75,"x_max":725,"o":"m 674 665 q 699 701 692 701 q 725 596 725 701 q 724 578 725 590 q 724 560 724 567 q 692 359 717 449 q 632 233 667 269 q 579 210 610 210 q 508 253 538 210 q 432 429 478 297 q 396 517 401 517 q 377 449 393 517 q 335 299 361 381 q 285 192 310 217 q 246 172 265 172 q 169 242 207 172 q 111 419 142 297 q 76 611 81 540 q 75 649 75 628 q 85 679 75 675 q 100 679 96 683 q 132 567 104 678 q 229 269 200 307 q 232 267 231 268 q 240 263 238 258 q 244 274 242 265 l 246 276 q 318 557 258 308 q 383 669 343 669 q 404 664 394 669 q 442 619 425 653 q 497 478 460 586 q 571 306 558 306 q 576 310 575 306 q 604 405 582 319 q 640 556 626 490 q 674 665 656 626 z "},"x":{"ha":581,"x_min":75,"x_max":506,"o":"m 78 703 q 94 717 85 717 q 224 604 126 717 l 288 531 l 357 603 q 485 711 461 711 q 493 699 493 711 q 406 547 493 663 q 349 467 349 472 q 399 394 349 460 q 504 226 496 268 q 506 214 506 222 q 478 182 506 182 q 468 183 472 182 q 425 213 449 189 q 347 308 401 238 q 285 381 290 381 q 222 304 281 381 q 147 211 168 233 q 108 189 125 189 l 101 189 q 79 211 79 190 q 110 284 79 229 q 185 399 140 339 q 228 464 228 460 q 175 538 228 469 q 75 693 75 668 q 78 703 75 697 z "},"y":{"ha":608,"x_min":76,"x_max":538,"o":"m 465 676 q 496 689 475 689 q 528 675 515 689 q 538 644 538 665 q 525 542 538 622 q 515 479 522 529 q 504 403 508 429 q 427 109 472 203 q 293 -28 382 15 q 197 -53 242 -53 q 122 -32 158 -53 q 76 13 76 -4 q 88 19 76 19 q 110 15 94 19 q 147 10 125 10 q 258 46 201 10 q 342 136 315 82 q 381 244 381 211 l 379 249 l 378 249 q 335 231 368 249 q 253 208 292 208 q 153 264 190 208 q 117 364 131 296 q 103 506 103 432 q 108 585 103 535 q 151 675 121 675 q 178 651 172 675 q 185 543 183 628 q 256 294 189 294 q 334 341 285 294 q 410 439 383 388 q 435 557 424 464 q 447 644 443 628 q 465 676 451 661 z "},"z":{"ha":613,"x_min":75,"x_max":539,"o":"m 257 699 q 315 701 274 701 q 345 701 325 701 q 376 700 365 700 q 497 681 467 699 q 539 621 539 658 q 533 596 539 607 q 313 375 518 564 q 232 294 232 301 q 292 288 232 288 q 444 273 379 286 q 510 238 510 260 q 335 188 510 210 q 208 176 250 176 q 103 226 119 176 q 99 247 99 239 q 107 276 99 258 q 260 440 121 304 q 407 589 407 585 q 326 594 407 594 l 258 594 q 168 593 219 593 q 90 606 103 593 q 75 643 75 618 q 85 667 75 658 q 257 699 101 681 z "}," ":{"ha":347,"x_min":0,"x_max":0,"o":""},"‘":{"ha":317,"x_min":75,"x_max":243,"o":"m 182 815 q 235 860 224 860 q 243 840 243 860 q 204 688 243 800 q 147 564 165 576 q 118 554 133 554 q 76 589 89 554 q 75 601 75 592 q 108 705 75 638 q 182 815 142 772 z "},"’":{"ha":285,"x_min":69,"x_max":211,"o":"m 126 863 q 157 874 142 874 q 200 851 183 874 q 211 825 211 833 l 206 797 q 161 692 197 765 q 106 596 125 619 q 81 575 89 575 q 69 611 69 575 q 71 644 69 631 q 94 781 76 711 q 126 863 111 850 z "},"”":{"ha":422,"x_min":69,"x_max":349,"o":"m 281 819 q 317 840 294 840 q 344 822 336 840 q 349 800 349 814 q 315 685 349 754 q 260 615 282 615 q 251 619 256 615 q 239 665 244 629 q 238 672 239 667 q 238 679 238 676 q 251 756 238 713 q 281 819 264 799 m 110 838 q 140 853 124 853 q 168 840 157 853 q 179 807 179 828 q 160 719 179 782 q 126 633 142 657 q 86 590 100 590 q 69 656 69 590 l 69 665 q 110 838 72 797 z "},"‟":{"ha":440,"x_min":72,"x_max":368,"o":"m 97 851 q 115 860 113 860 q 135 853 118 860 q 190 754 165 840 q 203 678 203 708 q 196 636 203 657 q 182 618 190 618 q 150 640 174 618 q 82 758 110 675 q 72 807 72 786 q 97 851 72 839 m 254 818 q 269 856 254 844 q 293 867 285 867 q 315 857 301 867 q 350 781 332 844 q 368 672 368 717 q 365 649 368 654 q 360 643 364 643 q 329 667 354 643 q 275 742 296 699 q 254 818 254 786 z "},"′":{"ha":239,"x_min":69,"x_max":168,"o":"m 99 849 q 118 853 108 853 q 151 838 136 853 q 165 813 163 826 q 168 753 168 800 q 139 594 168 632 l 125 578 l 113 596 q 82 670 94 618 q 69 769 69 722 q 78 822 69 806 q 99 849 88 843 z "},"″":{"ha":400,"x_min":69,"x_max":329,"o":"m 264 835 q 294 846 274 846 q 322 836 314 846 q 329 793 329 828 q 316 674 329 739 q 289 610 303 610 q 264 663 275 610 q 253 771 253 717 q 264 835 253 824 m 85 847 q 110 860 100 860 q 136 842 122 860 q 150 803 150 824 q 147 757 150 799 q 119 618 138 643 q 111 613 115 613 q 83 658 96 613 q 69 767 71 704 l 69 796 q 85 847 69 835 z "},"‶":{"ha":494,"x_min":78,"x_max":422,"o":"m 94 1007 q 121 1017 108 1017 q 158 994 136 1017 q 217 896 182 969 q 256 789 253 822 l 256 775 q 243 747 256 747 q 128 874 213 747 q 78 978 78 947 q 94 1007 78 997 m 256 1026 q 283 1039 265 1039 q 324 1021 306 1039 q 368 947 338 1006 q 413 850 399 888 q 422 789 422 818 q 415 757 422 761 l 414 757 q 354 808 400 757 q 281 907 308 860 q 243 997 243 969 q 256 1026 243 1014 z "}}}
